<svg width="495" height="170" viewBox="0 0 495 170" fill="none" xmlns="http://www.w3.org/2000/svg" role="img" aria-labelledby="title desc">
  <title id="title">Top languages across Abhijeet Ranjan's own public repositories</title>
  <desc id="desc">Local language card showing TypeScript, CSS, JavaScript, Shell, and other languages.</desc>
  <defs>
    <linearGradient id="glow" x1="24" y1="0" x2="471" y2="0" gradientUnits="userSpaceOnUse">
      <stop stop-color="#3178c6"/>
      <stop offset="0.55" stop-color="#00c7b7"/>
      <stop offset="1" stop-color="#f1e05a"/>
    </linearGradient>
  </defs>
  <rect x="1" y="1" width="493" height="168" rx="14" fill="#0d1117" stroke="#30363d" stroke-width="2"/>
  <text x="24" y="38" fill="#f0f6fc" font-family="Segoe UI, Arial, sans-serif" font-size="20" font-weight="700">Top Languages</text>
  <text x="24" y="59" fill="#8b949e" font-family="Segoe UI, Arial, sans-serif" font-size="12">Own non-fork public repositories</text>
  <rect x="24" y="80" width="447" height="14" rx="7" fill="#161b22"/>
  <rect x="24" y="80" width="365" height="14" rx="7" fill="#3178c6"/>
  <rect x="389" y="80" width="29" height="14" fill="#563d7c"/>
  <rect x="418" y="80" width="26" height="14" fill="#f1e05a"/>
  <rect x="444" y="80" width="16" height="14" fill="#3572A5"/>
  <rect x="460" y="80" width="11" height="14" rx="3.5" fill="url(#glow)"/>
  <g font-family="Segoe UI, Arial, sans-serif" font-size="12">
    <circle cx="30" cy="117" r="5" fill="#3178c6"/>
    <text x="42" y="121" fill="#c9d1d9">TypeScript 81.7%</text>
    <circle cx="166" cy="117" r="5" fill="#563d7c"/>
    <text x="178" y="121" fill="#c9d1d9">CSS 6.4%</text>
    <circle cx="257" cy="117" r="5" fill="#f1e05a"/>
    <text x="269" y="121" fill="#c9d1d9">JavaScript 5.7%</text>
    <circle cx="389" cy="117" r="5" fill="#3572A5"/>
    <text x="401" y="121" fill="#c9d1d9">Python 3.6%</text>
    <circle cx="30" cy="143" r="5" fill="#8b949e"/>
    <text x="42" y="147" fill="#c9d1d9">Other 2.6%</text>
    <text x="166" y="147" fill="#8b949e">Shell, PowerShell, HTML, SCSS, C++, Dockerfile</text>
  </g>
</svg>
