<svg width="495" height="170" viewBox="0 0 495 170" fill="none" xmlns="http://www.w3.org/2000/svg" role="img" aria-labelledby="title desc">
  <title id="title">Top languages across Abhijeet Ranjan's own public repositories</title>
  <desc id="desc">Automatically refreshed language card built from own non-fork public repositories.</desc>
  <defs>
    <linearGradient id="glow" x1="24" y1="0" x2="471" y2="0" gradientUnits="userSpaceOnUse">
      <stop stop-color="#3178c6"/>
      <stop offset="0.55" stop-color="#00c7b7"/>
      <stop offset="1" stop-color="#f1e05a"/>
    </linearGradient>
  </defs>
  <rect x="1" y="1" width="493" height="168" rx="14" fill="#0d1117" stroke="#30363d" stroke-width="2"/>
  <text x="24" y="38" fill="#f0f6fc" font-family="Segoe UI, Arial, sans-serif" font-size="20" font-weight="700">Language Footprint</text>
  <text x="24" y="59" fill="#8b949e" font-family="Segoe UI, Arial, sans-serif" font-size="12">Own non-fork public repositories</text>
  <rect x="24" y="80" width="447" height="14" rx="7" fill="#161b22"/>
  <g clip-path="url(#barClip)">
    <rect x="24" y="80" width="310" height="14" fill="#3178c6"/>
<rect x="334" y="80" width="56" height="14" fill="#f1e05a"/>
<rect x="390" y="80" width="39" height="14" fill="#563d7c"/>
<rect x="429" y="80" width="16" height="14" fill="#3572A5"/>
<rect x="445" y="80" width="26" height="14" fill="#8b949e"/>
  </g>
  <defs>
    <clipPath id="barClip"><rect x="24" y="80" width="447" height="14" rx="7"/></clipPath>
  </defs>
  <g font-family="Segoe UI, Arial, sans-serif" font-size="12">
    <circle cx="30" cy="117" r="5" fill="#3178c6"/>
    <text x="42" y="121" fill="#c9d1d9">TypeScript 69.3%</text>
    <circle cx="30" cy="139" r="5" fill="#f1e05a"/>
    <text x="42" y="143" fill="#c9d1d9">JavaScript 12.6%</text>
    <circle cx="30" cy="161" r="5" fill="#563d7c"/>
    <text x="42" y="165" fill="#c9d1d9">CSS 8.8%</text>
    <circle cx="256" cy="117" r="5" fill="#3572A5"/>
    <text x="268" y="121" fill="#c9d1d9">Python 3.6%</text>
    <circle cx="256" cy="139" r="5" fill="#8b949e"/>
    <text x="268" y="143" fill="#c9d1d9">Other 5.7%</text>
  </g>
</svg>
